<!-- assets/thumbnails/github_thumb.svg -->
<svg width="512" height="512" viewBox="0 0 512 512" xmlns="http://www.w3.org/2000/svg" role="img" aria-label="GitHub">
  <!-- background card -->
  <rect x="0" y="0" width="512" height="512" rx="36" fill="#0D1117"/>
  <!-- subtle ring -->
  <rect x="12" y="12" width="488" height="488" rx="30" fill="none" stroke="#1F2937" stroke-width="2"/>
  <!-- GitHub mark -->
  <path fill="#E5E7EB" d="M256 76c-99.3 0-180 80.7-180 180 0 79.6 51.6 147 123.2 170.7 9 .8 12.3-3.9 12.3-8.7 0-4.3-.2-18.4-.3-33.4-50.1 10.9-60.7-21.3-60.7-21.3-8.2-20.9-20.1-26.4-20.1-26.4-16.4-11.2 1.2-11 1.2-11 18.1 1.3 27.6 18.5 27.6 18.5 16.1 27.6 42.3 19.6 52.6 15 .1-11.7 6.3-19.6 11.5-24.1-40-4.6-82.1-20-82.1-89 0-19.7 7-35.8 18.4-48.5-1.8-4.5-8-23 1.8-47.9 0 0 15.1-4.8 49.5 18.5 14.3-4 29.7-6 45-6 15.3 0 30.7 2 45 6 34.4-23.3 49.5-18.5 49.5-18.5 9.8 24.9 3.6 43.4 1.8 47.9 11.5 12.7 18.4 28.8 18.4 48.5 0 69.2-42.2 84.3-82.4 88.8 6.5 5.6 12.2 16.7 12.2 33.7 0 24.3-.2 43.8-.2 49.8 0 4.8 3.2 9.6 12.4 8.7C384.5 403 436 335.6 436 256c0-99.3-80.7-180-180-180z"/>
</svg>
